<?xml version="1.0" standalone="no"?>
<!DOCTYPE svg PUBLIC "-//W3C//DTD SVG 20010904//EN"
 "http://www.w3.org/TR/2001/REC-SVG-20010904/DTD/svg10.dtd">
<svg version="1.0" xmlns="http://www.w3.org/2000/svg"
 width="260.000000pt" height="260.000000pt" viewBox="0 0 260.000000 260.000000"
 preserveAspectRatio="xMidYMid meet">
<metadata>
Created by potrace 1.14, written by Peter Selinger 2001-2017
</metadata>
<g transform="translate(0.000000,260.000000) scale(0.100000,-0.100000)"
fill="#000000" stroke="none">
<path d="M1813 1949 l-81 -80 -30 15 c-16 8 -32 12 -36 9 -3 -4 -6 0 -6 7 0 7
-3 10 -7 7 -3 -4 -16 -1 -27 6 -12 8 -34 18 -51 22 -16 5 -33 9 -37 10 -5 2
-9 3 -10 5 -3 2 -21 6 -58 14 -14 3 -36 8 -50 12 -14 3 -81 7 -150 9 -181 5
-306 -25 -426 -104 -65 -41 -184 -157 -184 -178 0 -7 -4 -13 -10 -13 -5 0 -10
-7 -10 -15 0 -8 -5 -15 -11 -15 -5 0 -7 -4 -4 -10 3 -5 1 -10 -4 -10 -6 0 -10
-3 -9 -7 0 -5 -7 -26 -16 -47 -55 -123 -59 -336 -10 -505 37 -128 131 -260
234 -327 103 -68 182 -89 331 -87 124 1 230 38 321 114 26 21 49 39 52 39 3 0
5 -114 3 -254 l-2 -254 -25 -27 c-14 -15 -34 -31 -45 -35 -17 -7 -117 -22
-152 -23 -9 0 -13 -17 -13 -48 l0 -48 425 0 425 -1 0 51 c0 51 -3 54 -50 63
-69 12 -116 46 -136 96 -19 47 -9 1433 11 1632 3 27 0 38 -13 43 -48 19 -57
15 -139 -66z m-419 -97 c48 -27 95 -83 115 -137 17 -45 18 -83 18 -410 l0
-360 -31 -27 c-59 -53 -96 -66 -187 -66 -46 0 -88 4 -94 8 -5 5 -14 9 -20 10
-5 1 -26 14 -45 28 -64 46 -111 139 -131 259 -10 64 -14 264 -5 308 3 16 12
73 20 125 4 26 52 150 58 150 5 0 8 5 8 10 0 14 69 89 95 103 54 29 146 29
199 -1z"/>
</g>
</svg>
